# This file uses centimeters as units for non-parametric coordinates.

mtllib book.mtl
g default
v 65.748023 10.096706 -11.898611
v 65.748015 7.652026 -11.898602
v 65.660555 7.652026 -11.976399
v 65.660553 10.096706 -11.976418
v 65.774435 10.087776 -11.752205
v 65.742708 10.087776 -11.716538
v 65.742708 7.653076 -11.716538
v 65.774435 7.653076 -11.752205
v 64.377224 10.087776 -10.709806
v 65.480340 10.087776 -11.949922
v 65.480350 7.653076 -11.949912
v 64.377235 7.653076 -10.709797
v 65.766983 10.090296 -11.793476
v 65.766983 7.652776 -11.793476
v 65.553841 7.652776 -11.983008
v 65.553841 10.090286 -11.983008
v 65.512077 7.653076 -11.985579
v 65.512067 10.087776 -11.985589
v 64.639593 10.087776 -10.476423
v 64.639593 7.653076 -10.476423
v 65.660545 10.122206 -11.976409
v 65.748015 10.122206 -11.898602
v 65.774435 10.113276 -11.752205
v 65.742708 10.113276 -11.716538
v 64.639593 10.113276 -10.476423
v 64.377224 10.113276 -10.709806
v 65.480340 10.113276 -11.949922
v 65.553841 10.115786 -11.983008
v 65.766983 10.115796 -11.793476
v 65.512067 10.113276 -11.985589
v 65.748015 7.626806 -11.898602
v 65.660555 7.626806 -11.976399
v 64.639593 7.627856 -10.476423
v 65.742708 7.627856 -11.716538
v 65.480350 7.627856 -11.949912
v 64.377235 7.627856 -10.709797
v 65.512077 7.627856 -11.985579
v 65.766983 7.627556 -11.793476
v 65.553841 7.627556 -11.983008
v 65.774435 7.627856 -11.752205
v 64.618075 10.087776 -10.452232
v 64.618075 7.653076 -10.452232
v 64.355717 7.653076 -10.685606
v 64.355706 10.087776 -10.685616
v 64.618075 10.113276 -10.452232
v 64.355706 10.113276 -10.685616
v 64.618075 7.627856 -10.452232
v 64.355717 7.627856 -10.685606
v 65.731954 10.090296 -11.754097
v 64.612505 10.090296 -10.495619
v 64.612505 10.115796 -10.495619
v 65.731954 10.115796 -11.754097
v 64.399395 10.090286 -10.685186
v 65.518804 10.090286 -11.943620
v 65.518804 10.115786 -11.943620
v 64.399395 10.115786 -10.685186
v 65.622988 10.096706 -11.934188
v 65.710458 10.096706 -11.856381
v 65.710458 10.122206 -11.856381
v 65.622988 10.122206 -11.934188
v 65.521117 7.652776 -11.946220
v 64.401700 7.652786 -10.687778
v 64.401700 7.627556 -10.687778
v 65.521117 7.627556 -11.946220
v 64.614810 7.652776 -10.498211
v 65.734259 7.652776 -11.756689
v 65.734259 7.627556 -11.756689
v 64.614810 7.627556 -10.498211
v 65.712755 7.652026 -11.858963
v 65.625295 7.652026 -11.936760
v 65.625295 7.626806 -11.936760
v 65.712755 7.626806 -11.858963
v 64.593300 7.652786 -10.474029
v 64.590987 10.090296 -10.471429
v 64.377877 10.090286 -10.660996
v 64.380190 7.652786 -10.663596
v 64.377877 10.115786 -10.660996
v 64.590987 10.115796 -10.471429
v 64.593300 7.627556 -10.474029
v 64.380190 7.627556 -10.663596
v 64.461935 10.096706 -10.628897
v 64.464232 7.652026 -10.631479
v 64.551681 7.652026 -10.553691
v 64.549384 10.096706 -10.551109
vt 0.532579 0.800601
vt 0.527893 0.799995
vt 0.527893 0.525014
vt 0.532579 0.521549
vt 0.532579 0.805965
vt 0.527893 0.805359
vt 0.527893 0.517105
vt 0.532579 0.512817
vt 0.544514 0.511254
vt 0.544514 0.501892
vt 0.561138 0.511254
vt 0.561138 0.501892
vt 0.573083 0.521559
vt 0.573083 0.512825
vt 0.577759 0.525014
vt 0.577759 0.517105
vt 0.573083 0.800601
vt 0.577759 0.799995
vt 0.577759 0.805359
vt 0.573083 0.805965
vt 0.517402 0.507254
vt 0.522076 0.507286
vt 0.522076 0.782267
vt 0.517402 0.786299
vt 0.517402 0.501892
vt 0.522076 0.501922
vt 0.522076 0.790176
vt 0.517402 0.794456
vt 0.505456 0.796599
vt 0.505456 0.805389
vt 0.488833 0.796599
vt 0.488833 0.805389
vt 0.476898 0.786307
vt 0.476898 0.794464
vt 0.472212 0.782267
vt 0.472212 0.790176
vt 0.472212 0.507286
vt 0.476898 0.507254
vt 0.472212 0.501922
vt 0.476898 0.501892
vt 0.466395 0.512197
vt 0.466395 0.791239
vt 0.454447 0.791321
vt 0.454451 0.501892
vt 0.437826 0.791321
vt 0.437826 0.501892
vt 0.425892 0.791239
vt 0.425892 0.512187
vt 0.379571 0.781029
vt 0.379571 0.501976
vt 0.391506 0.501892
vt 0.391506 0.791321
vt 0.408126 0.501892
vt 0.408128 0.791321
vt 0.420075 0.501976
vt 0.420075 0.781021
vt 0.041309 0.008837
vt 0.049218 0.008837
vt 0.049218 0.492885
vt 0.041309 0.492885
vt 0.041309 0.003767
vt 0.049218 0.003767
vt 0.324199 0.008837
vt 0.324199 0.492885
vt 0.049218 0.497899
vt 0.041309 0.497899
vt 0.037021 0.492945
vt 0.037021 0.008336
vt 0.037021 0.003266
vt 0.324199 0.003767
vt 0.329563 0.008837
vt 0.329563 0.492885
vt 0.324199 0.497899
vt 0.037021 0.497959
vt 0.026096 0.493094
vt 0.026094 0.007062
vt 0.026096 0.001992
vt 0.329563 0.003767
vt 0.329563 0.497899
vt 0.026096 0.498108
vt 0.341877 0.008837
vt 0.616858 0.008837
vt 0.616858 0.492885
vt 0.341877 0.492885
vt 0.341877 0.003767
vt 0.616858 0.003767
vt 0.624767 0.008837
vt 0.624767 0.492885
vt 0.616858 0.497899
vt 0.341877 0.497899
vt 0.336513 0.492885
vt 0.336513 0.008837
vt 0.336513 0.003767
vt 0.624767 0.003767
vt 0.629047 0.008338
vt 0.629047 0.492945
vt 0.624767 0.497899
vt 0.336513 0.497899
vt 0.629047 0.003268
vt 0.639982 0.007062
vt 0.639980 0.493094
vt 0.629047 0.497959
vt 0.639980 0.001992
vt 0.639980 0.498108
vt 0.931348 0.008336
vt 0.652296 0.008336
vt 0.652296 0.003266
vt 0.931348 0.003266
vt 0.646932 0.008336
vt 0.646932 0.003266
vt 0.941643 0.007062
vt 0.941643 0.001992
vt 0.652870 0.492945
vt 0.647508 0.492943
vt 0.652870 0.497959
vt 0.647508 0.497959
vt 0.931923 0.492945
vt 0.931923 0.497959
vt 0.942216 0.493094
vt 0.942216 0.498108
vt 0.940811 0.508238
vt 0.661769 0.508238
vt 0.661769 0.503169
vt 0.940811 0.503169
vt 0.651464 0.506962
vt 0.651464 0.501892
vt 0.946175 0.503169
vt 0.946175 0.508238
vt 0.940237 0.992843
vt 0.945599 0.992843
vt 0.940237 0.997859
vt 0.945599 0.997859
vt 0.661192 0.992845
vt 0.661192 0.997859
vt 0.650892 0.992994
vt 0.650892 0.998008
vt 0.018513 0.007062
vt 0.018513 0.493094
vt 0.001891 0.493094
vt 0.001889 0.007062
vt 0.018513 0.498108
vt 0.001891 0.498108
vt 0.001889 0.001992
vt 0.018513 0.001992
vt 0.368684 0.518517
vt 0.368684 0.501892
vt 0.373754 0.501892
vt 0.373754 0.518517
vt 0.362868 0.501892
vt 0.362868 0.518515
vt 0.357854 0.518515
vt 0.357854 0.501892
vt 0.640389 0.991511
vt 0.640389 0.507463
vt 0.645075 0.506962
vt 0.645075 0.991569
vt 0.640389 0.502393
vt 0.645075 0.501892
vt 0.640389 0.996525
vt 0.645075 0.996585
vt 0.629896 0.991567
vt 0.629896 0.506962
vt 0.634572 0.507461
vt 0.634570 0.991509
vt 0.629896 0.501892
vt 0.634572 0.502391
vt 0.629896 0.996583
vt 0.634570 0.996523
vt 0.612131 0.501892
vt 0.612131 0.987924
vt 0.595510 0.987924
vt 0.595510 0.501892
vt 0.624080 0.503169
vt 0.624080 0.987773
vt 0.583576 0.987775
vt 0.583576 0.503167
vn 0.866685 0.000176 -0.498856
vn 0.866686 -0.000001 -0.498854
vn 0.394503 -0.000002 -0.918895
vn 0.394487 0.000175 -0.918902
vn 0.968322 -0.000000 0.249705
vn 0.747173 -0.000000 0.664630
vn 0.747173 -0.000000 0.664630
vn 0.968322 -0.000000 0.249705
vn -0.747173 -0.000003 -0.664630
vn -0.747173 -0.000003 -0.664630
vn -0.747173 -0.000003 -0.664630
vn -0.747173 -0.000003 -0.664630
vn 0.984102 0.000044 -0.177603
vn 0.984100 -0.000000 -0.177617
vn 0.866686 -0.000001 -0.498854
vn 0.866685 0.000176 -0.498856
vn 0.394487 0.000175 -0.918902
vn 0.394503 -0.000002 -0.918895
vn 0.061639 -0.000001 -0.998098
vn 0.061658 0.000042 -0.998097
vn 0.968322 -0.000000 0.249705
vn 0.968322 -0.000000 0.249705
vn 0.984100 -0.000000 -0.177617
vn 0.984102 0.000044 -0.177603
vn 0.061658 0.000042 -0.998097
vn 0.061639 -0.000001 -0.998098
vn -0.360995 -0.000001 -0.932568
vn -0.360942 -0.000003 -0.932588
vn 0.747173 -0.000000 0.664630
vn 0.747173 -0.000000 0.664630
vn 0.747173 -0.000000 0.664630
vn 0.747173 -0.000000 0.664630
vn -0.360942 -0.000003 -0.932588
vn -0.360995 -0.000001 -0.932568
vn -0.747173 -0.000003 -0.664630
vn -0.747173 -0.000003 -0.664630
vn 0.866685 0.000176 -0.498856
vn 0.394487 0.000175 -0.918902
vn 0.402556 0.000354 -0.915395
vn 0.862261 0.000355 -0.506464
vn 0.747173 -0.000000 0.664630
vn 0.968322 -0.000000 0.249705
vn 0.971211 -0.000000 0.238219
vn 0.747173 -0.000000 0.664630
vn 0.747173 -0.000000 0.664630
vn 0.747173 -0.000000 0.664630
vn 0.747173 -0.000000 0.664630
vn 0.747173 -0.000000 0.664630
vn -0.747173 -0.000003 -0.664630
vn -0.747173 -0.000003 -0.664630
vn -0.747173 0.000000 -0.664630
vn -0.747173 0.000000 -0.664630
vn 0.394487 0.000175 -0.918902
vn 0.061658 0.000042 -0.998097
vn 0.061669 0.000096 -0.998097
vn 0.402556 0.000354 -0.915395
vn 0.984102 0.000044 -0.177603
vn 0.866685 0.000176 -0.498856
vn 0.862261 0.000355 -0.506464
vn 0.984104 0.000097 -0.177595
vn 0.968322 -0.000000 0.249705
vn 0.984102 0.000044 -0.177603
vn 0.984104 0.000097 -0.177595
vn 0.971211 -0.000000 0.238219
vn 0.061658 0.000042 -0.998097
vn -0.360942 -0.000003 -0.932588
vn -0.349865 0.000000 -0.936800
vn 0.061669 0.000096 -0.998097
vn -0.360942 -0.000003 -0.932588
vn -0.747173 -0.000003 -0.664630
vn -0.747173 0.000000 -0.664630
vn -0.349865 0.000000 -0.936800
vn 0.394503 -0.000002 -0.918895
vn 0.866686 -0.000001 -0.498854
vn 0.866174 -0.000000 -0.499743
vn 0.395454 0.000000 -0.918486
vn 0.747173 -0.000000 0.664630
vn 0.747173 -0.000000 0.664630
vn 0.747173 -0.000000 0.664630
vn 0.747173 -0.000000 0.664630
vn -0.747173 -0.000003 -0.664630
vn -0.747173 -0.000003 -0.664630
vn -0.747173 0.000000 -0.664630
vn -0.747173 0.000000 -0.664630
vn -0.747173 -0.000003 -0.664630
vn -0.360995 -0.000001 -0.932568
vn -0.359673 0.000000 -0.933079
vn -0.747173 0.000000 -0.664630
vn 0.866686 -0.000001 -0.498854
vn 0.984100 -0.000000 -0.177617
vn 0.984098 -0.000000 -0.177628
vn 0.866174 -0.000000 -0.499743
vn 0.061639 -0.000001 -0.998098
vn 0.394503 -0.000002 -0.918895
vn 0.395454 0.000000 -0.918486
vn 0.061635 0.000000 -0.998099
vn 0.984100 -0.000000 -0.177617
vn 0.968322 -0.000000 0.249705
vn 0.968682 -0.000000 0.248305
vn 0.984098 -0.000000 -0.177628
vn -0.360995 -0.000001 -0.932568
vn 0.061639 -0.000001 -0.998098
vn 0.061635 0.000000 -0.998099
vn -0.359673 0.000000 -0.933079
vn 0.968322 -0.000000 0.249705
vn 0.747173 -0.000000 0.664630
vn 0.747173 -0.000000 0.664630
vn 0.968682 -0.000000 0.248305
vn 0.747173 -0.000000 0.664630
vn 0.747173 -0.000000 0.664630
vn 0.747173 -0.000000 0.664630
vn 0.747173 -0.000000 0.664630
vn -0.747173 -0.000003 -0.664630
vn -0.747173 -0.000003 -0.664630
vn -0.747173 -0.000003 -0.664630
vn -0.747173 -0.000003 -0.664630
vn 0.747173 -0.000000 0.664630
vn 0.747173 -0.000000 0.664630
vn 0.747173 -0.000000 0.664630
vn 0.747173 -0.000000 0.664630
vn -0.747173 0.000000 -0.664630
vn -0.747173 -0.000003 -0.664630
vn -0.747173 -0.000003 -0.664630
vn -0.747173 0.000000 -0.664630
vn 0.747173 -0.000000 0.664630
vn 0.747173 -0.000000 0.664630
vn 0.747173 -0.000000 0.664630
vn 0.747173 -0.000000 0.664630
vn -0.747173 -0.000003 -0.664630
vn -0.747173 0.000000 -0.664630
vn -0.747173 0.000000 -0.664630
vn -0.747173 -0.000003 -0.664630
vn -0.747173 0.000000 -0.664630
vn -0.747173 0.000000 -0.664630
vn -0.747173 0.000000 -0.664630
vn -0.747173 0.000000 -0.664630
vn 0.747173 -0.000000 0.664630
vn 0.747173 -0.000000 0.664630
vn 0.747173 -0.000000 0.664630
vn 0.747173 -0.000000 0.664630
vn -0.398869 -0.000000 0.917008
vn -0.864260 0.000000 0.503045
vn -0.855626 0.000000 0.517594
vn -0.414338 -0.000000 0.910123
vn -0.090166 -0.000000 0.995927
vn -0.398869 -0.000000 0.917008
vn -0.414338 -0.000000 0.910123
vn -0.090166 -0.000000 0.995927
vn -0.864260 0.000000 0.503045
vn -0.978621 0.000000 0.205674
vn -0.978621 0.000000 0.205674
vn -0.855626 0.000000 0.517594
vn 0.056890 0.997097 0.050605
vn 0.056890 0.997097 0.050605
vn 0.056890 0.997097 0.050605
vn 0.056876 0.997099 0.050593
vn -0.056789 0.997107 -0.050515
vn -0.056805 0.997106 -0.050529
vn -0.056789 0.997107 -0.050515
vn -0.056789 0.997107 -0.050515
vn -0.033653 0.998985 -0.029935
vn 0.033629 0.998987 0.029914
vn 0.019659 0.999654 0.017487
vn -0.019674 0.999653 -0.017500
vn -0.056805 0.997106 -0.050529
vn -0.033653 0.998985 -0.029935
vn -0.019674 0.999653 -0.017500
vn -0.056844 0.997102 -0.050564
vn 0.033629 0.998987 0.029914
vn 0.056876 0.997099 0.050593
vn 0.056841 0.997102 0.050562
vn 0.019659 0.999654 0.017487
vn 0.056876 0.997099 0.050593
vn 0.056890 0.997097 0.050605
vn 0.056890 0.997097 0.050605
vn 0.056841 0.997102 0.050562
vn -0.056789 0.997107 -0.050515
vn -0.056805 0.997106 -0.050529
vn -0.056844 0.997102 -0.050564
vn -0.056789 0.997107 -0.050515
vn 0.747173 -0.000000 0.664630
vn 0.747173 -0.000000 0.664630
vn 0.747173 -0.000000 0.664630
vn 0.747173 -0.000000 0.664630
vn -0.747173 0.000000 -0.664630
vn -0.747173 0.000000 -0.664630
vn -0.747173 0.000000 -0.664630
vn -0.747173 0.000000 -0.664630
vn -0.860563 0.000000 0.509343
vn -0.405634 -0.000000 0.914035
vn -0.407444 -0.000000 0.913230
vn -0.859552 0.000000 0.511048
vn -0.978602 0.000000 0.205765
vn -0.860563 0.000000 0.509343
vn -0.859552 0.000000 0.511048
vn -0.978602 0.000000 0.205765
vn -0.405634 -0.000000 0.914035
vn -0.090431 -0.000000 0.995903
vn -0.090431 -0.000000 0.995903
vn -0.407444 -0.000000 0.913230
vn -0.006630 -0.999961 -0.005897
vn -0.006630 -0.999961 -0.005897
vn -0.006630 -0.999961 -0.005897
vn -0.006777 -0.999959 -0.006028
vn 0.006765 -0.999959 0.006018
vn 0.006792 -0.999959 0.006041
vn 0.006792 -0.999959 0.006041
vn 0.006792 -0.999959 0.006041
vn 0.003950 -0.999986 0.003514
vn -0.003946 -0.999986 -0.003510
vn -0.002302 -0.999995 -0.002048
vn 0.002305 -0.999995 0.002050
vn 0.006765 -0.999959 0.006018
vn 0.003950 -0.999986 0.003514
vn 0.002305 -0.999995 0.002050
vn 0.006701 -0.999960 0.005961
vn 0.006792 -0.999959 0.006041
vn 0.006765 -0.999959 0.006018
vn 0.006701 -0.999960 0.005961
vn 0.006792 -0.999959 0.006041
vn -0.003946 -0.999986 -0.003510
vn -0.006777 -0.999959 -0.006028
vn -0.006700 -0.999960 -0.005960
vn -0.002302 -0.999995 -0.002048
vn -0.006777 -0.999959 -0.006028
vn -0.006630 -0.999961 -0.005897
vn -0.006630 -0.999961 -0.005897
vn -0.006700 -0.999960 -0.005960
vn -0.747173 0.000000 -0.664630
vn -0.747173 0.000000 -0.664630
vn -0.747173 0.000000 -0.664630
vn -0.747173 0.000000 -0.664630
vn 0.747173 -0.000000 0.664630
vn 0.747173 -0.000000 0.664630
vn 0.747173 -0.000000 0.664630
vn 0.747173 -0.000000 0.664630
vn 0.747173 -0.000000 0.664630
vn 0.747173 -0.000000 0.664630
vn 0.747173 -0.000000 0.664630
vn 0.747173 -0.000000 0.664630
vn -0.747173 0.000000 -0.664630
vn -0.747173 0.000000 -0.664630
vn -0.747173 0.000000 -0.664630
vn -0.747173 0.000000 -0.664630
vn 0.056890 0.997097 0.050605
vn 0.056890 0.997097 0.050605
vn 0.056890 0.997097 0.050605
vn 0.056890 0.997097 0.050605
vn -0.056789 0.997107 -0.050515
vn -0.056789 0.997107 -0.050515
vn -0.056789 0.997107 -0.050516
vn -0.056789 0.997107 -0.050516
vn -0.747173 0.000000 -0.664630
vn -0.747173 0.000000 -0.664630
vn -0.747173 0.000000 -0.664630
vn -0.747173 0.000000 -0.664630
vn 0.747173 -0.000000 0.664630
vn 0.747173 -0.000000 0.664630
vn 0.747173 -0.000000 0.664630
vn 0.747173 -0.000000 0.664630
vn 0.006792 -0.999959 0.006041
vn 0.006792 -0.999959 0.006041
vn 0.006792 -0.999959 0.006041
vn 0.006792 -0.999959 0.006041
vn -0.006630 -0.999961 -0.005897
vn -0.006630 -0.999961 -0.005897
vn -0.006809 -0.999958 -0.006057
vn -0.006809 -0.999958 -0.006057
vn -0.640185 -0.000282 0.768221
vn -0.600797 -0.000381 0.799402
vn -0.597976 -0.000333 0.801514
vn -0.640720 -0.000354 0.767775
vn -0.687932 -0.000354 0.725775
vn -0.726687 -0.000228 0.686969
vn -0.724068 -0.000381 0.689728
vn -0.688586 -0.000229 0.725155
vn -0.726687 -0.000228 0.686969
vn -0.743105 0.000000 0.669175
vn -0.743105 0.000000 0.669175
vn -0.724068 -0.000381 0.689728
vn -0.600797 -0.000381 0.799402
vn -0.578208 0.000000 0.815889
vn -0.578208 0.000000 0.815889
vn -0.597976 -0.000333 0.801514
vn -0.668707 0.000000 0.743526
vn -0.687932 -0.000354 0.725775
vn -0.688586 -0.000229 0.725155
vn -0.668707 0.000000 0.743526
vn -0.660543 0.000000 0.750788
vn -0.640185 -0.000282 0.768221
vn -0.640720 -0.000354 0.767775
vn -0.660543 0.000000 0.750788
vn -0.666743 -0.001416 0.745287
vn -0.666810 -0.001416 0.745226
vn -0.662439 -0.001416 0.749114
vn -0.662508 -0.001416 0.749053
vn -0.056855 0.997101 -0.050573
vn -0.056855 0.997101 -0.050573
vn -0.028346 0.999280 -0.025215
vn -0.020119 0.999637 -0.017897
vn 0.006667 -0.999960 0.005931
vn 0.006667 -0.999960 0.005931
vn 0.003326 -0.999990 0.002959
vn 0.002357 -0.999995 0.002097
vn -0.669004 -0.001418 0.743258
vn -0.669004 -0.001418 0.743258
vn -0.666810 -0.001416 0.745226
vn -0.666743 -0.001416 0.745287
vn -0.662508 -0.001416 0.749053
vn -0.662439 -0.001416 0.749114
vn -0.660226 -0.001418 0.751065
vn -0.660226 -0.001418 0.751065
vn -0.028346 0.999280 -0.025215
vn 0.028330 0.999281 0.025201
vn 0.020109 0.999638 0.017887
vn -0.020119 0.999637 -0.017897
vn 0.002357 -0.999995 0.002097
vn 0.003326 -0.999990 0.002959
vn -0.003345 -0.999990 -0.002973
vn -0.002371 -0.999995 -0.002108
vn 0.020109 0.999638 0.017887
vn 0.028330 0.999281 0.025201
vn 0.056822 0.997104 0.050544
vn 0.056822 0.997104 0.050544
vn -0.002371 -0.999995 -0.002108
vn -0.003345 -0.999990 -0.002973
vn -0.006705 -0.999960 -0.005961
vn -0.006705 -0.999960 -0.005961
s off
g book
usemtl initialShadingGroup
f 1/137/1 2/138/2 3/139/3 4/140/4
f 5/57/5 6/58/6 7/59/7 8/60/8
f 9/81/9 10/82/10 11/83/11 12/84/12
f 13/68/13 14/67/14 2/75/15 1/76/16
f 4/100/17 3/101/18 15/96/19 16/95/20
f 5/57/21 8/60/22 14/67/23 13/68/24
f 16/95/25 15/96/26 17/88/27 18/87/28
f 19/63/29 20/64/30 7/59/31 6/58/32
f 18/87/33 17/88/34 11/83/35 10/82/36
f 1/137/37 4/140/38 21/143/39 22/144/40
f 6/58/41 5/57/42 23/61/43 24/62/44
f 19/63/45 6/58/46 24/62/47 25/70/48
f 10/82/49 9/81/50 26/85/51 27/86/52
f 4/100/53 16/95/54 28/99/55 21/103/56
f 13/68/57 1/76/58 22/77/59 29/69/60
f 5/57/61 13/68/62 29/69/63 23/61/64
f 16/95/65 18/87/66 30/94/67 28/99/68
f 18/87/69 10/82/70 27/86/71 30/94/72
f 3/139/73 2/138/74 31/141/75 32/142/76
f 7/59/77 20/64/78 33/73/79 34/65/80
f 12/84/81 11/83/82 35/89/83 36/90/84
f 11/83/85 17/88/86 37/97/87 35/89/88
f 2/75/89 14/67/90 38/74/91 31/80/92
f 15/96/93 3/101/94 32/104/95 39/102/96
f 14/67/97 8/60/98 40/66/99 38/74/100
f 17/88/101 15/96/102 39/102/103 37/97/104
f 8/60/105 7/59/106 34/65/107 40/66/108
f 20/64/109 19/63/110 41/71/111 42/72/112
f 9/81/113 12/84/114 43/91/115 44/92/116
f 19/63/117 25/70/118 45/78/119 41/71/120
f 26/85/121 9/81/122 44/92/123 46/93/124
f 33/73/125 20/64/126 42/72/127 47/79/128
f 12/84/129 36/90/130 48/98/131 43/91/132
f 49/105/133 50/106/134 51/107/135 52/108/136
f 53/121/137 54/122/138 55/123/139 56/124/140
f 57/145/141 58/146/142 59/147/143 60/148/144
f 54/122/145 57/125/146 60/126/147 55/123/148
f 58/111/149 49/105/150 52/108/151 59/112/152
f 51/1/153 25/2/154 24/3/155 52/4/156
f 56/17/157 55/13/158 27/15/159 26/18/160
f 60/11/161 59/9/162 22/10/163 21/12/164
f 55/13/165 60/11/166 21/12/167 28/14/168
f 59/9/169 52/4/170 29/8/171 22/10/172
f 52/4/173 24/3/174 23/7/175 29/8/176
f 27/15/177 55/13/178 28/14/179 30/16/180
f 61/133/181 62/129/182 63/131/183 64/134/184
f 65/113/185 66/117/186 67/118/187 68/115/188
f 69/149/189 70/150/190 71/151/191 72/152/192
f 66/117/193 69/119/194 72/120/195 67/118/196
f 70/135/197 61/133/198 64/134/199 71/136/200
f 63/21/201 36/22/202 35/23/203 64/24/204
f 67/33/205 34/35/206 33/37/207 68/38/208
f 72/31/209 71/29/210 32/30/211 31/32/212
f 67/33/213 72/31/214 31/32/215 38/34/216
f 34/35/217 67/33/218 38/34/219 40/36/220
f 71/29/221 64/24/222 39/28/223 32/30/224
f 64/24/225 35/23/226 37/27/227 39/28/228
f 50/106/229 65/113/230 73/114/231 74/109/232
f 62/129/233 53/121/234 75/128/235 76/130/236
f 53/121/237 56/124/238 77/127/239 75/128/240
f 51/107/241 50/106/242 74/109/243 78/110/244
f 25/2/245 51/1/246 78/5/247 45/6/248
f 56/17/249 26/18/250 46/19/251 77/20/252
f 65/113/253 68/115/254 79/116/255 73/114/256
f 63/131/257 62/129/258 76/130/259 80/132/260
f 68/38/261 33/37/262 47/39/263 79/40/264
f 36/22/265 63/21/266 80/25/267 48/26/268
f 42/153/269 41/154/270 74/155/271 73/156/272
f 76/161/273 75/162/274 44/163/275 43/164/276
f 75/162/277 77/165/278 46/166/279 44/163/280
f 41/154/281 45/157/282 78/158/283 74/155/284
f 80/167/285 76/161/286 43/164/287 48/168/288
f 47/159/289 42/153/290 73/156/291 79/160/292
f 81/169/293 82/170/294 83/171/295 84/172/296
f 54/41/297 53/42/298 81/43/299 57/44/300
f 66/49/301 65/50/302 83/51/303 69/52/304
f 53/173/305 62/174/306 82/170/307 81/169/308
f 84/172/309 83/171/310 65/175/311 50/176/312
f 81/43/313 84/45/314 58/46/315 57/44/316
f 69/52/317 83/51/318 82/53/319 70/54/320
f 58/46/321 84/45/322 50/47/323 49/48/324
f 70/54/325 82/53/326 62/55/327 61/56/328
