# This file uses centimeters as units for non-parametric coordinates.

mtllib bookshelf_floor.mtl
g default
v 26.017540 -12.995728 -43.394446
v 33.455700 -12.995728 -36.607587
v 40.893864 -12.995728 -29.820733
v 48.332029 -12.995728 -23.033878
v 55.770194 -12.995728 -16.247023
v 63.208358 -12.995728 -9.460173
v 70.646531 -12.995728 -2.673338
v 26.017540 -11.595729 -43.394446
v 33.455700 -11.595729 -36.607587
v 40.893864 -11.595729 -29.820733
v 48.332029 -11.595729 -23.033878
v 55.770194 -11.595729 -16.247023
v 63.208358 -11.595729 -9.460173
v 70.646531 -11.595729 -2.673338
v 35.187973 -11.595729 -53.444933
v 42.626141 -11.595729 -46.658084
v 50.064303 -11.595729 -39.871224
v 57.502467 -11.595729 -33.084370
v 64.940634 -11.595729 -26.297513
v 72.378801 -11.595729 -19.510665
v 79.816967 -11.595729 -12.723809
v 44.358413 -11.595729 -63.495414
v 51.796575 -11.595729 -56.708571
v 59.234744 -11.595729 -49.921721
v 66.672902 -11.595729 -43.134864
v 74.111067 -11.595729 -36.348009
v 81.549230 -11.595729 -29.561147
v 88.987390 -11.595729 -22.774314
v 53.528844 -11.595729 -73.545912
v 60.967019 -11.595729 -66.759066
v 68.405184 -11.595729 -59.972211
v 75.843347 -11.595729 -53.185358
v 83.281509 -11.595729 -46.398506
v 90.719669 -11.595729 -39.611656
v 98.157834 -11.595729 -32.824783
v 62.699283 -11.595729 -83.596403
v 70.137453 -11.595729 -76.809553
v 77.575612 -11.595729 -70.022703
v 85.013777 -11.595729 -63.235848
v 92.451950 -11.595729 -56.448959
v 99.890100 -11.595729 -49.662136
v 107.328281 -11.595729 -42.875284
v 62.699283 -12.995728 -83.596403
v 70.137453 -12.995728 -76.809553
v 77.575612 -12.995728 -70.022703
v 85.013777 -12.995728 -63.235848
v 92.451950 -12.995728 -56.448959
v 99.890100 -12.995728 -49.662136
v 107.328281 -12.995728 -42.875284
v 53.528844 -12.995728 -73.545912
v 60.967019 -12.995728 -66.759066
v 68.405184 -12.995728 -59.972211
v 75.843347 -12.995728 -53.185358
v 83.281509 -12.995728 -46.398506
v 90.719669 -12.995728 -39.611656
v 98.157834 -12.995728 -32.824783
v 44.358413 -12.995728 -63.495414
v 51.796575 -12.995728 -56.708571
v 59.234744 -12.995728 -49.921721
v 66.672902 -12.995728 -43.134864
v 74.111067 -12.995728 -36.348009
v 81.549230 -12.995728 -29.561147
v 88.987390 -12.995728 -22.774314
v 35.187973 -12.995728 -53.444933
v 42.626141 -12.995728 -46.658084
v 50.064303 -12.995728 -39.871224
v 57.502467 -12.995728 -33.084370
v 64.940634 -12.995728 -26.297513
v 72.378801 -12.995728 -19.510665
v 79.816967 -12.995728 -12.723809
v 48.332029 -12.855729 -23.033878
v 55.770194 -12.855729 -16.247023
vt 0.356981 0.402723
vt 0.356981 0.323362
vt 0.674427 0.323362
vt 0.674427 0.402723
vt 0.356981 0.482084
vt 0.674427 0.482084
vt 0.356981 0.561446
vt 0.674427 0.561446
vt 0.356981 0.640807
vt 0.674427 0.640807
vt 0.033403 0.323362
vt 0.112763 0.323362
vt 0.112763 0.640805
vt 0.033403 0.640805
vt 0.192125 0.323362
vt 0.192125 0.640805
vt 0.271485 0.323362
vt 0.271485 0.640805
vt 0.350847 0.323362
vt 0.350847 0.640805
vt 0.141966 0.930495
vt 0.062605 0.930495
vt 0.141966 0.644796
vt 0.227721 0.930495
vt 0.148359 0.930495
vt 0.148359 0.644796
vt 0.574853 0.984366
vt 0.574434 0.931460
vt 0.653793 0.930831
vt 0.654212 0.983737
vt 0.574015 0.878554
vt 0.653374 0.877926
vt 0.733152 0.930203
vt 0.733571 0.983109
vt 0.573596 0.825649
vt 0.652955 0.825020
vt 0.732733 0.877297
vt 0.812511 0.929574
vt 0.812930 0.982480
vt 0.732314 0.824392
vt 0.812092 0.876669
vt 0.891870 0.928945
vt 0.892289 0.981852
vt 0.652536 0.772115
vt 0.731895 0.771486
vt 0.811673 0.823763
vt 0.891451 0.876040
vt 0.652117 0.719209
vt 0.731476 0.718581
vt 0.811254 0.770858
vt 0.891032 0.823135
vt 0.573177 0.772743
vt 0.572758 0.719838
vt 0.651698 0.666304
vt 0.731057 0.665675
vt 0.810835 0.717952
vt 0.890613 0.770229
vt 0.572339 0.666933
vt 0.810416 0.665047
vt 0.890194 0.717324
vt 0.889775 0.664418
vt 0.680565 0.323356
vt 0.733473 0.323356
vt 0.733473 0.402715
vt 0.680565 0.402715
vt 0.786380 0.323356
vt 0.786380 0.402715
vt 0.733473 0.482077
vt 0.680565 0.482077
vt 0.839287 0.323356
vt 0.839287 0.402715
vt 0.786380 0.482077
vt 0.733473 0.561437
vt 0.680565 0.561437
vt 0.892194 0.323356
vt 0.892194 0.402715
vt 0.839287 0.482077
vt 0.786380 0.561437
vt 0.733473 0.640799
vt 0.680565 0.640799
vt 0.945101 0.323356
vt 0.945101 0.402715
vt 0.892194 0.482077
vt 0.839287 0.561437
vt 0.786380 0.640799
vt 0.998008 0.323356
vt 0.998008 0.402715
vt 0.945101 0.482077
vt 0.892194 0.561437
vt 0.839287 0.640799
vt 0.998008 0.482077
vt 0.945101 0.561437
vt 0.892194 0.640799
vt 0.998008 0.561437
vt 0.945101 0.640799
vt 0.998008 0.640798
vt 0.001992 0.001922
vt 0.054900 0.001922
vt 0.054900 0.319365
vt 0.001992 0.319365
vt 0.107807 0.001922
vt 0.107807 0.319365
vt 0.160714 0.001922
vt 0.160714 0.033667
vt 0.160714 0.319365
vt 0.213621 0.001922
vt 0.345033 0.868165
vt 0.266528 0.001922
vt 0.266528 0.319365
vt 0.213621 0.319365
vt 0.435429 0.920522
vt 0.435009 0.867452
vt 0.319435 0.001922
vt 0.319435 0.319365
vt 0.651187 0.001921
vt 0.704095 0.001921
vt 0.704095 0.319366
vt 0.651187 0.319366
vt 0.757002 0.001921
vt 0.757002 0.319366
vt 0.809909 0.001921
vt 0.809909 0.319366
vt 0.862816 0.001921
vt 0.862816 0.319366
vt 0.915724 0.001921
vt 0.915724 0.319366
vt 0.968631 0.001921
vt 0.968631 0.319366
vt 0.335522 0.827536
vt 0.335103 0.774631
vt 0.345454 0.921235
vt 0.213621 0.033667
vn -0.674025 0.000000 0.738708
vn -0.674025 0.000000 0.738708
vn -0.674025 0.000000 0.738708
vn -0.674025 0.000000 0.738708
vn -0.674025 0.000000 0.738709
vn -0.674025 0.000000 0.738709
vn -0.674025 0.000000 0.738709
vn -0.674025 0.000000 0.738709
vn -0.674025 0.000000 0.738709
vn -0.674025 0.000000 0.738709
vn -0.674024 0.000000 0.738709
vn -0.674024 0.000000 0.738709
vn -0.674025 0.000000 0.738709
vn -0.674025 0.000000 0.738709
vn -0.674023 0.000000 0.738710
vn -0.674023 0.000000 0.738710
vn 0.000000 1.000000 0.000000
vn -0.000000 1.000000 0.000000
vn 0.000000 1.000000 -0.000000
vn 0.000000 1.000000 -0.000000
vn -0.000000 1.000000 -0.000000
vn -0.000000 1.000000 -0.000000
vn -0.000000 1.000000 -0.000000
vn -0.000000 1.000000 -0.000000
vn 0.000000 1.000000 0.000000
vn 0.000000 1.000000 0.000000
vn 0.000000 1.000000 0.000000
vn 0.000000 1.000000 0.000000
vn 0.000000 1.000000 -0.000000
vn 0.000000 1.000000 -0.000000
vn 0.000000 1.000000 -0.000000
vn 0.000000 1.000000 -0.000000
vn -0.000000 1.000000 -0.000000
vn 0.000000 1.000000 -0.000000
vn 0.000000 1.000000 -0.000000
vn 0.000000 1.000000 0.000000
vn -0.000000 1.000000 0.000000
vn -0.000000 1.000000 0.000000
vn -0.000000 1.000000 0.000000
vn -0.000000 1.000000 0.000000
vn -0.000000 1.000000 0.000000
vn 0.000000 1.000000 -0.000000
vn 0.000000 1.000000 -0.000000
vn -0.000000 1.000000 0.000000
vn 0.000000 1.000000 -0.000000
vn 0.000000 1.000000 -0.000000
vn -0.000000 1.000000 0.000000
vn -0.000000 1.000000 0.000000
vn 0.000000 1.000000 -0.000000
vn 0.000000 1.000000 -0.000000
vn 0.000000 1.000000 -0.000000
vn 0.674024 0.000000 -0.738709
vn 0.674025 0.000000 -0.738709
vn 0.674025 0.000000 -0.738709
vn 0.674024 0.000000 -0.738709
vn 0.674025 0.000000 -0.738709
vn 0.674025 0.000000 -0.738709
vn 0.674026 0.000000 -0.738708
vn 0.674026 0.000000 -0.738708
vn 0.674025 0.000000 -0.738708
vn 0.674025 0.000000 -0.738708
vn 0.674024 0.000000 -0.738710
vn 0.674024 0.000000 -0.738710
vn 0.674024 0.000000 -0.738710
vn 0.674024 0.000000 -0.738710
vn 0.000000 -1.000000 0.000000
vn 0.000000 -1.000000 0.000000
vn 0.000000 -1.000000 0.000000
vn 0.000000 -1.000000 0.000000
vn 0.000000 -1.000000 0.000000
vn 0.000000 -1.000000 0.000000
vn 0.000000 -1.000000 0.000000
vn 0.000000 -1.000000 0.000000
vn 0.000000 -1.000000 0.000000
vn 0.000000 -1.000000 0.000000
vn 0.000000 -1.000000 0.000000
vn 0.000000 -1.000000 0.000000
vn 0.000000 -1.000000 0.000000
vn 0.000000 -1.000000 0.000000
vn 0.000000 -1.000000 0.000000
vn 0.000000 -1.000000 0.000000
vn 0.000000 -1.000000 0.000000
vn -0.000000 -1.000000 0.000000
vn -0.000000 -1.000000 0.000000
vn -0.000000 -1.000000 -0.000000
vn 0.000000 -1.000000 0.000000
vn 0.000000 -1.000000 0.000000
vn 0.000000 -1.000000 0.000000
vn 0.000000 -1.000000 0.000000
vn 0.000000 -1.000000 0.000000
vn -0.000000 -1.000000 -0.000000
vn -0.000000 -1.000000 -0.000000
vn 0.000000 -1.000000 0.000000
vn 0.000000 -1.000000 0.000000
vn 0.000000 -1.000000 0.000000
vn 0.000000 -1.000000 0.000000
vn 0.000000 -1.000000 0.000000
vn -0.000000 -1.000000 -0.000000
vn -0.000000 -1.000000 -0.000000
vn 0.000000 -1.000000 0.000000
vn 0.738708 0.000000 0.674025
vn 0.738709 0.000000 0.674025
vn 0.738709 0.000000 0.674025
vn 0.738708 0.000000 0.674025
vn 0.738709 0.000000 0.674025
vn 0.738709 0.000000 0.674025
vn 0.738709 0.000000 0.674025
vn 0.738709 0.000000 0.674025
vn 0.738708 0.000000 0.674026
vn 0.738708 0.000000 0.674026
vn -0.738709 0.000000 -0.674025
vn -0.738709 0.000000 -0.674025
vn -0.738709 0.000000 -0.674025
vn -0.738709 0.000000 -0.674025
vn -0.738709 0.000000 -0.674025
vn -0.738709 0.000000 -0.674025
vn -0.738708 0.000000 -0.674025
vn -0.738708 0.000000 -0.674025
vn -0.738709 0.000000 -0.674025
vn -0.738709 0.000000 -0.674025
vn -0.674025 0.000000 0.738709
vn -0.674025 0.000000 0.738709
vn -0.674025 0.000000 0.738709
vn -0.674025 0.000000 0.738709
vn -0.738708 0.000000 -0.674025
vn -0.738708 0.000000 -0.674025
vn -0.738708 0.000000 -0.674025
vn 0.738709 0.000000 0.674025
vn 0.738709 0.000000 0.674025
vn 0.738709 0.000000 0.674025
vn 0.000000 -1.000000 -0.000000
vn 0.000000 -1.000000 -0.000000
vn 0.000000 -1.000000 -0.000000
vn 0.000000 -1.000000 -0.000000
vn -0.062155 0.995739 0.068120
vn -0.062155 0.995739 0.068120
vn -0.062155 0.995739 0.068120
vn -0.062155 0.995739 0.068120
vn -0.674025 0.000000 0.738709
vn -0.674025 0.000000 0.738709
vn -0.674025 0.000000 0.738709
vn -0.674025 0.000000 0.738709
s 1
g bookshelf_floor
usemtl initialShadingGroup
f 1/97/1 2/98/2 9/99/3 8/100/4
f 2/98/2 3/101/5 10/102/6 9/99/3
f 3/101/5 4/103/7 71/104/8 11/105/9 10/102/6
s 2
f 5/106/10 6/108/11 13/109/12 12/110/13 72/132/14
f 6/108/11 7/113/15 14/114/16 13/109/12
s 3
f 8/27/17 9/28/18 16/29/19 15/30/20
f 9/28/18 10/31/21 17/32/22 16/29/19
f 10/31/21 11/35/23 18/36/24 17/32/22
f 12/52/25 13/53/26 20/48/27 19/44/28
f 13/53/26 14/58/29 21/54/30 20/48/27
f 15/30/20 16/29/19 23/33/31 22/34/32
f 16/29/19 17/32/22 24/37/33 23/33/31
f 17/32/22 18/36/24 25/40/34 24/37/33
f 18/36/24 19/44/28 26/45/35 25/40/34
f 19/44/28 20/48/27 27/49/36 26/45/35
f 20/48/27 21/54/30 28/55/37 27/49/36
f 22/34/32 23/33/31 30/38/38 29/39/39
f 23/33/31 24/37/33 31/41/40 30/38/38
f 24/37/33 25/40/34 32/46/41 31/41/40
f 25/40/34 26/45/35 33/50/42 32/46/41
f 26/45/35 27/49/36 34/56/43 33/50/42
f 27/49/36 28/55/37 35/59/44 34/56/43
f 29/39/39 30/38/38 37/42/45 36/43/46
f 30/38/38 31/41/40 38/47/47 37/42/45
f 31/41/40 32/46/41 39/51/48 38/47/47
f 32/46/41 33/50/42 40/57/49 39/51/48
f 33/50/42 34/56/43 41/60/50 40/57/49
f 34/56/43 35/59/44 42/61/51 41/60/50
s 5
f 36/115/52 37/116/53 44/117/54 43/118/55
f 37/116/53 38/119/56 45/120/57 44/117/54
f 38/119/56 39/121/58 46/122/59 45/120/57
f 39/121/58 40/123/60 47/124/61 46/122/59
f 40/123/60 41/125/62 48/126/63 47/124/61
f 41/125/62 42/127/64 49/128/65 48/126/63
s 6
f 43/62/66 44/63/67 51/64/68 50/65/69
f 44/63/67 45/66/70 52/67/71 51/64/68
f 45/66/70 46/70/72 53/71/73 52/67/71
f 46/70/72 47/75/74 54/76/75 53/71/73
f 47/75/74 48/81/76 55/82/77 54/76/75
f 48/81/76 49/86/78 56/87/79 55/82/77
f 50/65/69 51/64/68 58/68/80 57/69/81
f 51/64/68 52/67/71 59/72/82 58/68/80
f 52/67/71 53/71/73 60/77/83 59/72/82
f 53/71/73 54/76/75 61/83/84 60/77/83
f 54/76/75 55/82/77 62/88/85 61/83/84
f 55/82/77 56/87/79 63/91/86 62/88/85
f 57/69/81 58/68/80 65/73/87 64/74/88
f 58/68/80 59/72/82 66/78/89 65/73/87
f 59/72/82 60/77/83 67/84/90 66/78/89
f 60/77/83 61/83/84 68/89/91 67/84/90
f 61/83/84 62/88/85 69/92/92 68/89/91
f 62/88/85 63/91/86 70/94/93 69/92/92
f 64/74/88 65/73/87 2/79/94 1/80/95
f 65/73/87 66/78/89 3/85/96 2/79/94
f 66/78/89 67/84/90 4/90/97 3/85/96
f 68/89/91 69/92/92 6/95/98 5/93/99
f 69/92/92 70/94/93 7/96/100 6/95/98
s 7
f 56/1/101 49/2/102 42/3/103 35/4/104
f 63/5/105 56/1/101 35/4/104 28/6/106
f 70/7/107 63/5/105 28/6/106 21/8/108
f 7/9/109 70/7/107 21/8/108 14/10/110
s 8
f 43/11/111 50/12/112 29/13/113 36/14/114
f 50/12/112 57/15/115 22/16/116 29/13/113
f 57/15/115 64/17/117 15/18/118 22/16/116
f 64/17/117 1/19/119 8/20/120 15/18/118
s off
f 19/44/121 18/36/122 67/129/123 68/130/124
f 12/21/125 19/22/126 72/23/127
f 18/24/128 11/25/129 71/26/130
f 4/90/131 67/84/132 68/89/133 5/93/134
f 18/111/135 71/131/136 72/107/137 19/112/138
f 71/104/139 4/103/140 5/106/141 72/132/142
